<svg width="135" height="32" viewBox="0 0 135 32" fill="none" xmlns="http://www.w3.org/2000/svg">
<path d="M46.8 22V20.944C47.0453 20.9333 47.248 20.9013 47.408 20.848C47.5787 20.7947 47.7067 20.672 47.792 20.48C47.888 20.288 47.936 19.9787 47.936 19.552V13.424C47.936 13.136 47.9413 12.8587 47.952 12.592C47.9733 12.3253 47.9893 12.1227 48 11.984C47.8293 11.9947 47.616 12.0053 47.36 12.016C47.104 12.016 46.9173 12.0213 46.8 12.032V10.8C47.536 10.7893 48.272 10.784 49.008 10.784C49.7547 10.784 50.496 10.7787 51.232 10.768C52.512 10.7573 53.5253 10.9973 54.272 11.488C55.0293 11.968 55.3813 12.6987 55.328 13.68C55.3067 13.9893 55.2107 14.2933 55.04 14.592C54.8693 14.88 54.6133 15.1413 54.272 15.376C53.9413 15.6107 53.5253 15.7973 53.024 15.936V15.952C54.0907 16.1227 54.8747 16.48 55.376 17.024C55.8773 17.5573 56.128 18.1547 56.128 18.816C56.128 19.5093 55.9573 20.096 55.616 20.576C55.2853 21.0453 54.8267 21.4027 54.24 21.648C53.6533 21.8827 52.9867 22 52.24 22H46.8ZM50.192 20.864C50.384 20.864 50.5653 20.864 50.736 20.864C50.9067 20.864 51.0773 20.864 51.248 20.864C51.4187 20.8533 51.584 20.848 51.744 20.848C52.3947 20.816 52.8693 20.608 53.168 20.224C53.4667 19.84 53.616 19.3547 53.616 18.768C53.616 18.2773 53.5147 17.8933 53.312 17.616C53.1093 17.328 52.848 17.1253 52.528 17.008C52.2187 16.8907 51.8933 16.832 51.552 16.832C51.2853 16.832 51.056 16.832 50.864 16.832C50.672 16.832 50.4693 16.8373 50.256 16.848V19.456C50.256 19.744 50.2507 20.016 50.24 20.272C50.2293 20.528 50.2133 20.7253 50.192 20.864ZM50.256 15.712L51.088 15.696C51.536 15.6853 51.888 15.584 52.144 15.392C52.4107 15.2 52.5973 14.944 52.704 14.624C52.8213 14.2933 52.88 13.936 52.88 13.552C52.88 13.1253 52.7947 12.7947 52.624 12.56C52.4533 12.3147 52.24 12.1387 51.984 12.032C51.728 11.9253 51.4613 11.8773 51.184 11.888C51.0133 11.888 50.8587 11.9147 50.72 11.968C50.5813 12.0213 50.4693 12.144 50.384 12.336C50.2987 12.5173 50.256 12.816 50.256 13.232V15.712ZM61.1541 22.256C60.3861 22.256 59.6928 22.0907 59.0741 21.76C58.4555 21.4293 57.9648 20.96 57.6021 20.352C57.2501 19.7333 57.0741 19.008 57.0741 18.176C57.0741 17.2907 57.2555 16.5173 57.6181 15.856C57.9915 15.184 58.4821 14.6667 59.0901 14.304C59.7088 13.9307 60.3808 13.744 61.1061 13.744C61.8741 13.744 62.5621 13.9093 63.1701 14.24C63.7781 14.5707 64.2581 15.0453 64.6101 15.664C64.9621 16.272 65.1381 17.0027 65.1381 17.856C65.1381 18.752 64.9675 19.5307 64.6261 20.192C64.2848 20.8533 63.8155 21.3653 63.2181 21.728C62.6208 22.08 61.9328 22.256 61.1541 22.256ZM61.2181 21.12C61.6448 21.1093 61.9648 20.96 62.1781 20.672C62.4021 20.384 62.5568 20.0213 62.6421 19.584C62.7275 19.1467 62.7701 18.704 62.7701 18.256C62.7701 17.8613 62.7381 17.4613 62.6741 17.056C62.6208 16.6507 62.5301 16.2827 62.4021 15.952C62.2741 15.6213 62.0981 15.3547 61.8741 15.152C61.6608 14.9493 61.3941 14.8533 61.0741 14.864C60.6581 14.8747 60.3275 15.024 60.0821 15.312C59.8475 15.6 59.6768 15.9627 59.5701 16.4C59.4741 16.8267 59.4261 17.2747 59.4261 17.744C59.4261 18.288 59.4848 18.8213 59.6021 19.344C59.7195 19.8667 59.9061 20.2987 60.1621 20.64C60.4288 20.9707 60.7808 21.1307 61.2181 21.12ZM70.2166 22.256C69.4486 22.256 68.7553 22.0907 68.1366 21.76C67.518 21.4293 67.0273 20.96 66.6646 20.352C66.3126 19.7333 66.1366 19.008 66.1366 18.176C66.1366 17.2907 66.318 16.5173 66.6806 15.856C67.054 15.184 67.5446 14.6667 68.1526 14.304C68.7713 13.9307 69.4433 13.744 70.1686 13.744C70.9366 13.744 71.6246 13.9093 72.2326 14.24C72.8406 14.5707 73.3206 15.0453 73.6726 15.664C74.0246 16.272 74.2006 17.0027 74.2006 17.856C74.2006 18.752 74.03 19.5307 73.6886 20.192C73.3473 20.8533 72.878 21.3653 72.2806 21.728C71.6833 22.08 70.9953 22.256 70.2166 22.256ZM70.2806 21.12C70.7073 21.1093 71.0273 20.96 71.2406 20.672C71.4646 20.384 71.6193 20.0213 71.7046 19.584C71.79 19.1467 71.8326 18.704 71.8326 18.256C71.8326 17.8613 71.8006 17.4613 71.7366 17.056C71.6833 16.6507 71.5926 16.2827 71.4646 15.952C71.3366 15.6213 71.1606 15.3547 70.9366 15.152C70.7233 14.9493 70.4566 14.8533 70.1366 14.864C69.7206 14.8747 69.39 15.024 69.1446 15.312C68.91 15.6 68.7393 15.9627 68.6326 16.4C68.5366 16.8267 68.4886 17.2747 68.4886 17.744C68.4886 18.288 68.5473 18.8213 68.6646 19.344C68.782 19.8667 68.9686 20.2987 69.2246 20.64C69.4913 20.9707 69.8433 21.1307 70.2806 21.12ZM75.0406 22V20.96C75.3393 20.96 75.5526 20.9013 75.6806 20.784C75.8193 20.6667 75.9046 20.5013 75.9366 20.288C75.9793 20.064 76.0006 19.8133 76.0006 19.536V12.96C76.0006 12.768 76.006 12.5493 76.0166 12.304C76.0273 12.048 76.0433 11.8027 76.0646 11.568C75.894 11.5787 75.6913 11.5893 75.4566 11.6C75.2326 11.6 75.062 11.6053 74.9446 11.616V10.4C75.4353 10.4 75.846 10.3733 76.1766 10.32C76.518 10.2667 76.79 10.2027 76.9926 10.128C77.1953 10.0533 77.3286 9.984 77.3926 9.92H78.2726V17.216H79.0406L80.1926 15.888C80.3313 15.7387 80.4433 15.6107 80.5286 15.504C80.6246 15.3973 80.7206 15.3013 80.8166 15.216H79.9686V14H83.5686V15.024C83.1953 15.0667 82.8646 15.1573 82.5766 15.296C82.2886 15.424 82.038 15.5787 81.8246 15.76C81.622 15.9413 81.446 16.1173 81.2966 16.288L80.2726 17.44C80.4326 17.5147 80.5873 17.6267 80.7366 17.776C80.8966 17.9147 81.0886 18.1333 81.3126 18.432L82.3846 19.84C82.4486 19.9147 82.5286 20.016 82.6246 20.144C82.7313 20.272 82.8486 20.4 82.9766 20.528C83.1046 20.6453 83.2433 20.7467 83.3926 20.832C83.542 20.9173 83.6966 20.96 83.8566 20.96V22H82.0166C81.6753 22 81.3766 21.8827 81.1206 21.648C80.8646 21.4027 80.5713 21.056 80.2406 20.608C80.0486 20.352 79.846 20.08 79.6326 19.792C79.43 19.4933 79.238 19.216 79.0566 18.96C78.886 18.6933 78.7473 18.4853 78.6406 18.336L78.2726 18.352V19.424C78.2726 19.5733 78.2673 19.7867 78.2566 20.064C78.246 20.3307 78.23 20.5867 78.2086 20.832C78.3793 20.8107 78.566 20.8 78.7686 20.8C78.9713 20.7893 79.1313 20.784 79.2486 20.784V22H75.0406ZM89.1438 20.944C89.3891 20.9333 89.5918 20.9013 89.7518 20.848C89.9224 20.7947 90.0504 20.672 90.1358 20.48C90.2318 20.288 90.2798 19.9787 90.2798 19.552V13.424C90.2798 13.136 90.2851 12.8587 90.2958 12.592C90.3171 12.3253 90.3331 12.1227 90.3438 11.984C90.1731 11.9947 89.9598 12.0053 89.7038 12.016C89.4478 12.016 89.2611 12.0213 89.1438 12.032V10.8L93.7998 10.784C94.8558 10.784 95.7678 10.944 96.5358 11.264C97.3144 11.5733 97.9491 11.9947 98.4398 12.528C98.9411 13.0613 99.3144 13.6587 99.5598 14.32C99.8051 14.9707 99.9278 15.6267 99.9278 16.288C99.9278 16.9387 99.8104 17.6 99.5758 18.272C99.3518 18.944 98.9944 19.5627 98.5038 20.128C98.0131 20.6827 97.3731 21.136 96.5838 21.488C95.7944 21.8293 94.8398 22 93.7198 22H89.1438V20.944ZM92.5998 19.376C92.5998 19.664 92.5944 19.9413 92.5838 20.208C92.5731 20.4747 92.5571 20.6773 92.5358 20.816C92.6424 20.8053 92.7864 20.8053 92.9678 20.816C93.1598 20.816 93.3571 20.8213 93.5598 20.832C93.7624 20.832 93.9278 20.832 94.0558 20.832C94.6424 20.832 95.1438 20.7147 95.5598 20.48C95.9864 20.2453 96.3331 19.9307 96.5998 19.536C96.8771 19.1307 97.0798 18.6773 97.2078 18.176C97.3358 17.6747 97.3998 17.1573 97.3998 16.624C97.3998 15.536 97.2504 14.6453 96.9518 13.952C96.6531 13.2587 96.2318 12.7413 95.6878 12.4C95.1544 12.0587 94.5144 11.8773 93.7678 11.856C93.5118 11.8453 93.2931 11.872 93.1118 11.936C92.9411 11.9893 92.8131 12.112 92.7278 12.304C92.6424 12.496 92.5998 12.8 92.5998 13.216V19.376ZM104.932 22.256C104.154 22.256 103.466 22.0853 102.868 21.744C102.271 21.392 101.807 20.9013 101.476 20.272C101.146 19.632 100.98 18.88 100.98 18.016C100.98 17.2693 101.146 16.5707 101.476 15.92C101.807 15.2693 102.271 14.7467 102.868 14.352C103.476 13.9467 104.18 13.744 104.98 13.744C105.428 13.744 105.866 13.808 106.292 13.936C106.719 14.0533 107.103 14.2613 107.444 14.56C107.796 14.8587 108.074 15.264 108.276 15.776C108.49 16.288 108.591 16.928 108.58 17.696L103.332 17.792C103.332 18.368 103.402 18.8853 103.54 19.344C103.69 19.8027 103.93 20.1653 104.26 20.432C104.591 20.6987 105.034 20.832 105.588 20.832C105.802 20.832 106.042 20.7947 106.308 20.72C106.586 20.6453 106.863 20.5227 107.14 20.352C107.428 20.1707 107.695 19.9307 107.94 19.632L108.66 20.304C108.276 20.848 107.866 21.264 107.428 21.552C106.991 21.8293 106.554 22.016 106.116 22.112C105.69 22.208 105.295 22.256 104.932 22.256ZM103.428 16.672H106.372C106.362 16.224 106.298 15.872 106.18 15.616C106.074 15.3493 105.924 15.1573 105.732 15.04C105.54 14.9227 105.316 14.864 105.06 14.864C104.591 14.864 104.223 15.0347 103.956 15.376C103.69 15.7067 103.514 16.1387 103.428 16.672ZM109.59 26.08V25.04C109.888 25.04 110.102 24.9813 110.23 24.864C110.368 24.7467 110.454 24.576 110.486 24.352C110.528 24.1387 110.55 23.8933 110.55 23.616V16.848C110.55 16.656 110.555 16.4427 110.566 16.208C110.576 15.9627 110.592 15.7227 110.614 15.488C110.443 15.4987 110.24 15.5093 110.006 15.52C109.771 15.52 109.595 15.5253 109.478 15.536V14.32C109.979 14.32 110.395 14.2933 110.726 14.24C111.067 14.1867 111.334 14.1227 111.526 14.048C111.728 13.9733 111.867 13.904 111.942 13.84H112.726C112.747 13.9467 112.763 14.08 112.774 14.24C112.784 14.3893 112.795 14.512 112.806 14.608C113.179 14.288 113.547 14.064 113.91 13.936C114.283 13.808 114.635 13.744 114.966 13.744C115.606 13.744 116.166 13.9093 116.646 14.24C117.136 14.5707 117.515 15.04 117.782 15.648C118.059 16.256 118.198 16.9707 118.198 17.792C118.198 18.6453 118.032 19.4133 117.702 20.096C117.371 20.768 116.907 21.296 116.31 21.68C115.723 22.064 115.03 22.256 114.23 22.256C113.942 22.256 113.68 22.224 113.446 22.16C113.222 22.1067 113.008 22.0427 112.806 21.968V23.504C112.806 23.6533 112.8 23.8613 112.79 24.128C112.79 24.4053 112.779 24.6667 112.758 24.912C112.928 24.8907 113.115 24.8747 113.318 24.864C113.52 24.864 113.675 24.864 113.782 24.864V26.08H109.59ZM113.974 21.056C114.464 21.0453 114.843 20.9013 115.11 20.624C115.387 20.336 115.579 19.9627 115.686 19.504C115.792 19.0453 115.846 18.5547 115.846 18.032C115.846 17.5413 115.787 17.0773 115.67 16.64C115.552 16.2027 115.366 15.8507 115.11 15.584C114.854 15.3067 114.518 15.1733 114.102 15.184C113.835 15.1947 113.59 15.264 113.366 15.392C113.142 15.5093 112.955 15.6747 112.806 15.888C112.806 16.2187 112.806 16.5493 112.806 16.88C112.806 17.2 112.806 17.52 112.806 17.84C112.806 18.16 112.806 18.4853 112.806 18.816C112.806 19.136 112.806 19.4613 112.806 19.792C112.806 20.112 112.806 20.4373 112.806 20.768C112.923 20.8427 113.088 20.912 113.302 20.976C113.515 21.04 113.739 21.0667 113.974 21.056ZM123.279 22.256C122.511 22.256 121.818 22.0907 121.199 21.76C120.58 21.4293 120.09 20.96 119.727 20.352C119.375 19.7333 119.199 19.008 119.199 18.176C119.199 17.2907 119.38 16.5173 119.743 15.856C120.116 15.184 120.607 14.6667 121.215 14.304C121.834 13.9307 122.506 13.744 123.231 13.744C123.999 13.744 124.687 13.9093 125.295 14.24C125.903 14.5707 126.383 15.0453 126.735 15.664C127.087 16.272 127.263 17.0027 127.263 17.856C127.263 18.752 127.092 19.5307 126.751 20.192C126.41 20.8533 125.94 21.3653 125.343 21.728C124.746 22.08 124.058 22.256 123.279 22.256ZM123.343 21.12C123.77 21.1093 124.09 20.96 124.303 20.672C124.527 20.384 124.682 20.0213 124.767 19.584C124.852 19.1467 124.895 18.704 124.895 18.256C124.895 17.8613 124.863 17.4613 124.799 17.056C124.746 16.6507 124.655 16.2827 124.527 15.952C124.399 15.6213 124.223 15.3547 123.999 15.152C123.786 14.9493 123.519 14.8533 123.199 14.864C122.783 14.8747 122.452 15.024 122.207 15.312C121.972 15.6 121.802 15.9627 121.695 16.4C121.599 16.8267 121.551 17.2747 121.551 17.744C121.551 18.288 121.61 18.8213 121.727 19.344C121.844 19.8667 122.031 20.2987 122.287 20.64C122.554 20.9707 122.906 21.1307 123.343 21.12ZM131.59 22.256C131.27 22.256 130.96 22.2187 130.662 22.144C130.374 22.0693 130.107 21.9307 129.862 21.728C129.627 21.5147 129.44 21.2053 129.302 20.8C129.163 20.3947 129.094 19.856 129.094 19.184L129.126 15.328H128.038V14C128.368 13.9893 128.688 13.8773 128.998 13.664C129.307 13.4507 129.568 13.1733 129.782 12.832C130.006 12.4907 130.155 12.1333 130.23 11.76H131.414L131.398 14H133.43V15.232L131.398 15.28L131.382 19.216C131.382 19.4613 131.403 19.7067 131.446 19.952C131.499 20.1867 131.595 20.384 131.734 20.544C131.872 20.6933 132.075 20.768 132.342 20.768C132.491 20.768 132.694 20.7147 132.95 20.608C133.216 20.5013 133.499 20.2347 133.798 19.808L134.566 20.528C134.278 20.9547 133.979 21.2853 133.67 21.52C133.36 21.7547 133.062 21.9253 132.774 22.032C132.496 22.1387 132.251 22.2027 132.038 22.224C131.824 22.2453 131.675 22.256 131.59 22.256Z" fill="#191C24"/>
<path d="M16 9.99999C17 6.05249 20.7769 4.03687 29 3.99999C29.1315 3.9995 29.2617 4.02502 29.3833 4.0751C29.5048 4.12518 29.6153 4.19882 29.7082 4.29178C29.8012 4.38474 29.8748 4.49517 29.9249 4.61672C29.975 4.73827 30.0005 4.86853 30 4.99999V23C30 23.2652 29.8947 23.5196 29.7071 23.7071C29.5196 23.8946 29.2652 24 29 24C21 24 17.9094 25.6131 16 28M16 9.99999C15 6.05249 11.2231 4.03687 3.00001 3.99999C2.86855 3.9995 2.73829 4.02502 2.61674 4.0751C2.49519 4.12518 2.38475 4.19882 2.29179 4.29178C2.19884 4.38474 2.1252 4.49517 2.07512 4.61672C2.02504 4.73827 1.99951 4.86853 2.00001 4.99999V22.8794C2.00001 23.4969 2.38251 24 3.00001 24C11 24 14.1019 25.625 16 28M16 9.99999V28" stroke="#191C24" stroke-width="2.9375" stroke-linecap="round" stroke-linejoin="round"/>
</svg>
