<svg width="146" height="22" viewBox="0 0 146 22" fill="none" xmlns="http://www.w3.org/2000/svg">
<path d="M5.18567 20.2195L6.63232 13.9655L1.78049 9.75914L8.19024 9.20274L10.6829 3.30487L13.1756 9.20274L19.5854 9.75914L14.7335 13.9655L16.1802 20.2195L10.6829 16.9033L5.18567 20.2195Z" fill="#F2994A"/>
<path d="M30.1125 20.2195L31.5592 13.9655L26.7073 9.75914L33.1171 9.20274L35.6098 3.30487L38.1024 9.20274L44.5122 9.75914L39.6604 13.9655L41.107 20.2195L35.6098 16.9033L30.1125 20.2195Z" fill="#F2994A"/>
<path d="M55.0393 20.2195L56.486 13.9655L51.6341 9.75914L58.0439 9.20274L60.5366 3.30487L63.0293 9.20274L69.439 9.75914L64.5872 13.9655L66.0338 20.2195L60.5366 16.9033L55.0393 20.2195Z" fill="#F2994A"/>
<path d="M79.9662 20.2195L81.4128 13.9655L76.561 9.75914L82.9707 9.20274L85.4634 3.30487L87.9561 9.20274L94.3659 9.75914L89.514 13.9655L90.9607 20.2195L85.4634 16.9033L79.9662 20.2195Z" fill="#F2994A"/>
<path d="M104.893 20.2195L106.34 13.9655L101.488 9.75914L107.898 9.20274L110.39 3.30487L112.883 9.20274L119.293 9.75914L114.441 13.9655L115.888 20.2195L110.39 16.9033L104.893 20.2195Z" fill="#F2994A"/>
<path d="M129.82 20.2195L131.266 13.9655L126.415 9.75914L132.824 9.20274L135.317 3.30487L137.81 9.20274L144.22 9.75914L139.368 13.9655L140.814 20.2195L135.317 16.9033L129.82 20.2195Z" fill="#F2994A"/>
</svg>
